<svg fill="#5e6066" width="50" height="50" xmlns="http://www.w3.org/2000/svg" xmlns:xlink="http://www.w3.org/1999/xlink" version="1.1" baseProfile="basic" x="0px" y="0px" viewBox="0 0 100 125" xml:space="preserve"><g><path d="M50.3,25.7c-0.1,0-0.2,0-0.3,0c-21.4,0.2-34.6,17-38.1,22.2l-1.6,2.3l1.7,2.3c4.7,6.4,17.9,21.2,38.1,21.2c0,0,0,0,0.1,0   c21.3,0,34.8-16.3,38.4-21.3l1.7-2.3l-1.6-2.3C84.9,42.6,71.5,25.7,50.3,25.7z M50.1,65.7C50.1,65.7,50,65.7,50.1,65.7   c-14.6,0-24.9-9.7-29.9-15.7c4.2-5.3,14.8-16.2,29.9-16.4C65.1,33.5,75.6,44.2,80.2,50C75.6,55.6,65.1,65.7,50.1,65.7z"/><circle cx="50.2" cy="49.7" r="11.1"/></g></svg>